<mxfile host="65bd71144e" modified="2020-10-22T12:15:10.942Z" agent="5.0 (Macintosh; Intel Mac OS X 10_15_7) AppleWebKit/537.36 (KHTML, like Gecko) Code/1.50.0 Chrome/83.0.4103.122 Electron/9.2.1 Safari/537.36" etag="A3c9yOyXawvZcNCIgILg" version="13.6.5" pages="3">
    <diagram id="ebNaoricuq0C9DzMqi7a" name="decision-tree">
        <mxGraphModel dx="1864" dy="1084" grid="1" gridSize="10" guides="1" tooltips="1" connect="1" arrows="1" fold="1" page="1" pageScale="1" pageWidth="850" pageHeight="1100" math="0" shadow="0">
            <root>
                <mxCell id="vapM_MPzAJH0PbhbbyIr-0"/>
                <mxCell id="vapM_MPzAJH0PbhbbyIr-1" parent="vapM_MPzAJH0PbhbbyIr-0"/>
                <mxCell id="vapM_MPzAJH0PbhbbyIr-10" style="edgeStyle=orthogonalEdgeStyle;rounded=0;orthogonalLoop=1;jettySize=auto;html=1;exitX=0.5;exitY=1;exitDx=0;exitDy=0;entryX=0.5;entryY=0;entryDx=0;entryDy=0;strokeWidth=2;" parent="vapM_MPzAJH0PbhbbyIr-1" source="vapM_MPzAJH0PbhbbyIr-2" target="vapM_MPzAJH0PbhbbyIr-3" edge="1">
                    <mxGeometry relative="1" as="geometry"/>
                </mxCell>
                <mxCell id="vapM_MPzAJH0PbhbbyIr-2" value="Need to reuse existing identity source" style="ellipse;whiteSpace=wrap;html=1;fillColor=#FFFFFF;" parent="vapM_MPzAJH0PbhbbyIr-1" vertex="1">
                    <mxGeometry x="337.5" y="60" width="120" height="80" as="geometry"/>
                </mxCell>
                <mxCell id="vapM_MPzAJH0PbhbbyIr-3" value="Do you have or intend to establish a SAML IdP?" style="rhombus;whiteSpace=wrap;html=1;fillColor=#FFFFFF;spacing=20;" parent="vapM_MPzAJH0PbhbbyIr-1" vertex="1">
                    <mxGeometry x="325" y="180" width="145" height="130" as="geometry"/>
                </mxCell>
                <mxCell id="vapM_MPzAJH0PbhbbyIr-5" value="Is AWS SSO compatible with the SAML IdP?" style="rhombus;whiteSpace=wrap;html=1;fillColor=#FFFFFF;spacing=20;" parent="vapM_MPzAJH0PbhbbyIr-1" vertex="1">
                    <mxGeometry x="550" y="290" width="145" height="130" as="geometry"/>
                </mxCell>
                <mxCell id="vapM_MPzAJH0PbhbbyIr-6" value="Use your SAML IdP with AWS SSO" style="rounded=1;whiteSpace=wrap;html=1;fillColor=#FFFFFF;" parent="vapM_MPzAJH0PbhbbyIr-1" vertex="1">
                    <mxGeometry x="695" y="430" width="120" height="60" as="geometry"/>
                </mxCell>
                <mxCell id="vapM_MPzAJH0PbhbbyIr-7" value="Do you have or intend to establish AD in your AWS environment?" style="rhombus;whiteSpace=wrap;html=1;fillColor=#FFFFFF;spacing=20;" parent="vapM_MPzAJH0PbhbbyIr-1" vertex="1">
                    <mxGeometry x="85" y="290" width="145" height="130" as="geometry"/>
                </mxCell>
                <mxCell id="vapM_MPzAJH0PbhbbyIr-8" value="Use your SAML IdP with IAM" style="rounded=1;whiteSpace=wrap;html=1;fillColor=#FFFFFF;" parent="vapM_MPzAJH0PbhbbyIr-1" vertex="1">
                    <mxGeometry x="430" y="430" width="120" height="60" as="geometry"/>
                </mxCell>
                <mxCell id="vapM_MPzAJH0PbhbbyIr-9" value="Use your AD in AWS with AWS SSO" style="rounded=1;whiteSpace=wrap;html=1;fillColor=#FFFFFF;" parent="vapM_MPzAJH0PbhbbyIr-1" vertex="1">
                    <mxGeometry x="250" y="430" width="120" height="60" as="geometry"/>
                </mxCell>
                <mxCell id="vapM_MPzAJH0PbhbbyIr-11" style="edgeStyle=orthogonalEdgeStyle;rounded=0;orthogonalLoop=1;jettySize=auto;html=1;exitX=0;exitY=0.5;exitDx=0;exitDy=0;entryX=0.5;entryY=0;entryDx=0;entryDy=0;strokeWidth=2;" parent="vapM_MPzAJH0PbhbbyIr-1" source="vapM_MPzAJH0PbhbbyIr-3" target="vapM_MPzAJH0PbhbbyIr-7" edge="1">
                    <mxGeometry relative="1" as="geometry">
                        <mxPoint x="407.5" y="150" as="sourcePoint"/>
                        <mxPoint x="407.5" y="190" as="targetPoint"/>
                    </mxGeometry>
                </mxCell>
                <mxCell id="vapM_MPzAJH0PbhbbyIr-12" style="edgeStyle=orthogonalEdgeStyle;rounded=0;orthogonalLoop=1;jettySize=auto;html=1;exitX=1;exitY=0.5;exitDx=0;exitDy=0;entryX=0.5;entryY=0;entryDx=0;entryDy=0;strokeWidth=2;" parent="vapM_MPzAJH0PbhbbyIr-1" source="vapM_MPzAJH0PbhbbyIr-3" target="vapM_MPzAJH0PbhbbyIr-5" edge="1">
                    <mxGeometry relative="1" as="geometry">
                        <mxPoint x="335" y="255" as="sourcePoint"/>
                        <mxPoint x="167.5" y="300" as="targetPoint"/>
                    </mxGeometry>
                </mxCell>
                <mxCell id="vapM_MPzAJH0PbhbbyIr-13" style="edgeStyle=orthogonalEdgeStyle;rounded=0;orthogonalLoop=1;jettySize=auto;html=1;exitX=1;exitY=0.5;exitDx=0;exitDy=0;entryX=0.5;entryY=0;entryDx=0;entryDy=0;strokeWidth=2;" parent="vapM_MPzAJH0PbhbbyIr-1" source="vapM_MPzAJH0PbhbbyIr-7" target="vapM_MPzAJH0PbhbbyIr-9" edge="1">
                    <mxGeometry relative="1" as="geometry">
                        <mxPoint x="480" y="255" as="sourcePoint"/>
                        <mxPoint x="632.5" y="300" as="targetPoint"/>
                    </mxGeometry>
                </mxCell>
                <mxCell id="vapM_MPzAJH0PbhbbyIr-16" value="&lt;font style=&quot;font-size: 14px&quot;&gt;Yes&lt;/font&gt;" style="edgeLabel;html=1;align=center;verticalAlign=middle;resizable=0;points=[];" parent="vapM_MPzAJH0PbhbbyIr-13" vertex="1" connectable="0">
                    <mxGeometry x="-0.4074" y="2" relative="1" as="geometry">
                        <mxPoint x="-10" y="-23" as="offset"/>
                    </mxGeometry>
                </mxCell>
                <mxCell id="vapM_MPzAJH0PbhbbyIr-14" style="edgeStyle=orthogonalEdgeStyle;rounded=0;orthogonalLoop=1;jettySize=auto;html=1;exitX=0;exitY=0.5;exitDx=0;exitDy=0;entryX=0.5;entryY=0;entryDx=0;entryDy=0;strokeWidth=2;" parent="vapM_MPzAJH0PbhbbyIr-1" source="vapM_MPzAJH0PbhbbyIr-5" target="vapM_MPzAJH0PbhbbyIr-8" edge="1">
                    <mxGeometry relative="1" as="geometry">
                        <mxPoint x="240" y="365" as="sourcePoint"/>
                        <mxPoint x="300" y="440" as="targetPoint"/>
                    </mxGeometry>
                </mxCell>
                <mxCell id="vapM_MPzAJH0PbhbbyIr-17" value="&lt;span style=&quot;font-size: 14px&quot;&gt;No&lt;/span&gt;" style="edgeLabel;html=1;align=center;verticalAlign=middle;resizable=0;points=[];" parent="vapM_MPzAJH0PbhbbyIr-14" vertex="1" connectable="0">
                    <mxGeometry x="-0.687" y="-5" relative="1" as="geometry">
                        <mxPoint x="-2" y="-20" as="offset"/>
                    </mxGeometry>
                </mxCell>
                <mxCell id="vapM_MPzAJH0PbhbbyIr-15" style="edgeStyle=orthogonalEdgeStyle;rounded=0;orthogonalLoop=1;jettySize=auto;html=1;exitX=1;exitY=0.5;exitDx=0;exitDy=0;entryX=0.5;entryY=0;entryDx=0;entryDy=0;strokeWidth=2;" parent="vapM_MPzAJH0PbhbbyIr-1" source="vapM_MPzAJH0PbhbbyIr-5" target="vapM_MPzAJH0PbhbbyIr-6" edge="1">
                    <mxGeometry relative="1" as="geometry">
                        <mxPoint x="560" y="365" as="sourcePoint"/>
                        <mxPoint x="520" y="440" as="targetPoint"/>
                        <Array as="points">
                            <mxPoint x="755" y="355"/>
                        </Array>
                    </mxGeometry>
                </mxCell>
                <mxCell id="vapM_MPzAJH0PbhbbyIr-19" value="&lt;span style=&quot;font-size: 14px&quot;&gt;Yes&lt;/span&gt;" style="edgeLabel;html=1;align=center;verticalAlign=middle;resizable=0;points=[];" parent="vapM_MPzAJH0PbhbbyIr-15" vertex="1" connectable="0">
                    <mxGeometry x="-0.4815" y="6" relative="1" as="geometry">
                        <mxPoint x="-10" y="-19" as="offset"/>
                    </mxGeometry>
                </mxCell>
                <mxCell id="vapM_MPzAJH0PbhbbyIr-20" value="Reconsider SAML IdP or AD" style="rounded=1;whiteSpace=wrap;html=1;fillColor=#FFFFFF;" parent="vapM_MPzAJH0PbhbbyIr-1" vertex="1">
                    <mxGeometry x="-50" y="430" width="120" height="60" as="geometry"/>
                </mxCell>
                <mxCell id="vapM_MPzAJH0PbhbbyIr-21" style="edgeStyle=orthogonalEdgeStyle;rounded=0;orthogonalLoop=1;jettySize=auto;html=1;exitX=0;exitY=0.5;exitDx=0;exitDy=0;entryX=0.5;entryY=0;entryDx=0;entryDy=0;strokeWidth=2;" parent="vapM_MPzAJH0PbhbbyIr-1" source="vapM_MPzAJH0PbhbbyIr-7" target="vapM_MPzAJH0PbhbbyIr-20" edge="1">
                    <mxGeometry relative="1" as="geometry">
                        <mxPoint x="240" y="365" as="sourcePoint"/>
                        <mxPoint x="320" y="440" as="targetPoint"/>
                    </mxGeometry>
                </mxCell>
                <mxCell id="vapM_MPzAJH0PbhbbyIr-22" value="&lt;font style=&quot;font-size: 14px&quot;&gt;No&lt;/font&gt;" style="edgeLabel;html=1;align=center;verticalAlign=middle;resizable=0;points=[];" parent="vapM_MPzAJH0PbhbbyIr-21" vertex="1" connectable="0">
                    <mxGeometry x="-0.4074" y="2" relative="1" as="geometry">
                        <mxPoint x="9" y="-27" as="offset"/>
                    </mxGeometry>
                </mxCell>
                <mxCell id="yHYmTFjjycVsqIn3mBSF-0" value="&lt;font style=&quot;font-size: 14px&quot;&gt;No&lt;/font&gt;" style="edgeLabel;html=1;align=center;verticalAlign=middle;resizable=0;points=[];" vertex="1" connectable="0" parent="vapM_MPzAJH0PbhbbyIr-1">
                    <mxGeometry x="50" y="330" as="geometry">
                        <mxPoint x="244" y="-115" as="offset"/>
                    </mxGeometry>
                </mxCell>
                <mxCell id="yHYmTFjjycVsqIn3mBSF-1" value="&lt;font style=&quot;font-size: 14px&quot;&gt;Yes&lt;/font&gt;" style="edgeLabel;html=1;align=center;verticalAlign=middle;resizable=0;points=[];" vertex="1" connectable="0" parent="vapM_MPzAJH0PbhbbyIr-1">
                    <mxGeometry x="276" y="330" as="geometry">
                        <mxPoint x="229" y="-119" as="offset"/>
                    </mxGeometry>
                </mxCell>
            </root>
        </mxGraphModel>
    </diagram>
    <diagram id="zBwXZOt6y64cD11LXm4r" name="mad">
        <mxGraphModel dx="1864" dy="1084" grid="1" gridSize="10" guides="1" tooltips="1" connect="1" arrows="1" fold="1" page="1" pageScale="1" pageWidth="850" pageHeight="1100" math="0" shadow="0">
            <root>
                <mxCell id="0"/>
                <mxCell id="1" parent="0"/>
                <mxCell id="tUG6ERA7CwkmzWQRMpPt-1" value="" style="html=1;whiteSpace=wrap;fontSize=11;fontColor=#5a6c86;spacing=0;strokeColor=#5a6c86;strokeOpacity=100;fillOpacity=0;fillColor=#ffffff;" parent="1" vertex="1">
                    <mxGeometry x="-72" y="156" width="228" height="360" as="geometry"/>
                </mxCell>
                <UserObject label="Corporate Data Center" lucidchartObjectId="yV36uSDSA_6p" id="tUG6ERA7CwkmzWQRMpPt-2">
                    <mxCell style="html=1;whiteSpace=wrap;shape=mxgraph.aws4.group;grIcon=mxgraph.aws4.group_corporate_data_center;verticalAlign=top;align=left;spacingLeft=30;fillOpacity=100;fontColor=#5A6C86;fillColor=none;fontSize=11;spacing=0;strokeColor=#5a6c86;strokeOpacity=100;part=1;" parent="tUG6ERA7CwkmzWQRMpPt-1" vertex="1">
                        <mxGeometry width="228" height="360" as="geometry"/>
                    </mxCell>
                </UserObject>
                <UserObject label="Customer Edge Router" lucidchartObjectId="yV36Sef7pGWf" id="tUG6ERA7CwkmzWQRMpPt-3">
                    <mxCell style="html=1;whiteSpace=wrap;shape=mxgraph.aws4.customer_gateway;labelPosition=center;verticalLabelPosition=bottom;align=center;verticalAlign=top;strokeColor=none;fontSize=11;fontColor=#000000;spacing=0;strokeOpacity=100;fillColor=#693cc5;" parent="1" vertex="1">
                        <mxGeometry x="133" y="402" width="48" height="48" as="geometry"/>
                    </mxCell>
                </UserObject>
                <mxCell id="tUG6ERA7CwkmzWQRMpPt-4" value="" style="html=1;whiteSpace=wrap;fontSize=11;fontColor=#232f3e;spacing=0;strokeColor=#232f3e;strokeOpacity=100;fillOpacity=0;fillColor=#ffffff;" parent="1" vertex="1">
                    <mxGeometry x="290" y="156" width="370" height="336" as="geometry"/>
                </mxCell>
                <UserObject label="AWS Network Account" lucidchartObjectId="yV36WP5CP0t-" id="tUG6ERA7CwkmzWQRMpPt-5">
                    <mxCell style="html=1;whiteSpace=wrap;shape=mxgraph.aws4.group;grIcon=mxgraph.aws4.group_aws_cloud;verticalAlign=top;align=left;spacingLeft=30;fillOpacity=100;fillColor=none;fontSize=11;fontColor=#232f3e;spacing=0;strokeColor=#232f3e;strokeOpacity=100;part=1;" parent="tUG6ERA7CwkmzWQRMpPt-4" vertex="1">
                        <mxGeometry width="370" height="336" as="geometry"/>
                    </mxCell>
                </UserObject>
                <mxCell id="tUG6ERA7CwkmzWQRMpPt-6" value="" style="html=1;whiteSpace=wrap;fontSize=11;fontColor=#248814;spacing=0;strokeColor=#248814;strokeOpacity=100;fillOpacity=0;fillColor=#ffffff;" parent="1" vertex="1">
                    <mxGeometry x="300" y="204" width="348" height="276" as="geometry"/>
                </mxCell>
                <UserObject label="Virtual Private Cloud" lucidchartObjectId="yV36LvEYX_oW" id="tUG6ERA7CwkmzWQRMpPt-7">
                    <mxCell style="html=1;whiteSpace=wrap;shape=mxgraph.aws4.group;grIcon=mxgraph.aws4.group_vpc;verticalAlign=top;align=left;spacingLeft=30;fillOpacity=100;fontColor=#2C8723;fillColor=none;fontSize=11;spacing=0;strokeColor=#248814;strokeOpacity=100;part=1;" parent="tUG6ERA7CwkmzWQRMpPt-6" vertex="1">
                        <mxGeometry width="348" height="276" as="geometry"/>
                    </mxCell>
                </UserObject>
                <UserObject label="" lucidchartObjectId="yV36k1J~O321" id="tUG6ERA7CwkmzWQRMpPt-8">
                    <mxCell style="html=1;jettySize=18;fontSize=11;strokeOpacity=100;rounded=1;arcSize=0;edgeStyle=orthogonalEdgeStyle;startArrow=block;endFill=1;;endArrow=none;;exitX=1;exitY=0.5;exitPerimeter=1;entryX=0.12106186497058186;entryY=0;entryPerimeter=1;" parent="1" source="tUG6ERA7CwkmzWQRMpPt-3" target="tUG6ERA7CwkmzWQRMpPt-40" edge="1">
                        <mxGeometry width="100" height="100" relative="1" as="geometry">
                            <Array as="points"/>
                        </mxGeometry>
                    </mxCell>
                </UserObject>
                <UserObject label="AWS Direct Connect" lucidchartObjectId="yV36MPawnAMJ" id="tUG6ERA7CwkmzWQRMpPt-9">
                    <mxCell style="html=1;whiteSpace=wrap;shape=mxgraph.aws4.resourceIcon;resIcon=mxgraph.aws4.direct_connect;labelPosition=center;verticalLabelPosition=bottom;align=center;verticalAlign=top;strokeColor=#ffffff;fontSize=11;fontColor=#000000;spacing=0;strokeOpacity=100;fillColor=#693cc5;" parent="1" vertex="1">
                        <mxGeometry x="216" y="360" width="36" height="36" as="geometry"/>
                    </mxCell>
                </UserObject>
                <UserObject label="VPN Connection" lucidchartObjectId="yV36~h.62QMF" id="tUG6ERA7CwkmzWQRMpPt-10">
                    <mxCell style="html=1;whiteSpace=wrap;shape=mxgraph.aws4.vpn_connection;labelPosition=center;verticalLabelPosition=bottom;align=center;verticalAlign=top;strokeColor=none;fontSize=11;fontColor=#000000;spacing=0;strokeOpacity=100;fillColor=#693cc5;" parent="1" vertex="1">
                        <mxGeometry x="218" y="432" width="32" height="36" as="geometry"/>
                    </mxCell>
                </UserObject>
                <UserObject label="Active Directory Domain Controller" lucidchartObjectId="yV36YjpQBl9~" id="tUG6ERA7CwkmzWQRMpPt-11">
                    <mxCell style="html=1;whiteSpace=wrap;shape=mxgraph.aws3.traditional_server;labelPosition=center;verticalLabelPosition=bottom;align=center;verticalAlign=top;fontSize=9;fontColor=#000000;spacing=3;strokeOpacity=100;fillColor=#7d7c7c;" parent="1" vertex="1">
                        <mxGeometry x="-12" y="264" width="36" height="60" as="geometry"/>
                    </mxCell>
                </UserObject>
                <UserObject label="Active Directory Domain Controller" lucidchartObjectId="yV36OMYJL0kc" id="tUG6ERA7CwkmzWQRMpPt-12">
                    <mxCell style="html=1;whiteSpace=wrap;shape=mxgraph.aws3.traditional_server;labelPosition=center;verticalLabelPosition=bottom;align=center;verticalAlign=top;fontSize=9;fontColor=#000000;spacing=3;strokeOpacity=100;fillColor=#7d7c7c;" parent="1" vertex="1">
                        <mxGeometry x="60" y="264" width="36" height="60" as="geometry"/>
                    </mxCell>
                </UserObject>
                <UserObject label="Availability Zone" lucidchartObjectId="yV36vAJjspma" id="tUG6ERA7CwkmzWQRMpPt-13">
                    <mxCell style="html=1;whiteSpace=wrap;verticalAlign=top;fillColor=none;fillOpacity=100;dashed=1;dashPattern=5 5;fontColor=#0E82B8;fontSize=11;spacing=0;strokeColor=#147eba;strokeOpacity=100;" parent="1" vertex="1">
                        <mxGeometry x="312" y="252" width="156" height="216" as="geometry"/>
                    </mxCell>
                </UserObject>
                <UserObject label="AWS Single Sign-On" lucidchartObjectId="yV369IbAe0Ue" id="tUG6ERA7CwkmzWQRMpPt-14">
                    <mxCell style="html=1;whiteSpace=wrap;shape=mxgraph.aws4.resourceIcon;resIcon=mxgraph.aws4.single_sign_on;labelPosition=center;verticalLabelPosition=bottom;align=center;verticalAlign=top;strokeColor=#ffffff;fontSize=11;fontColor=#000000;spacing=0;strokeOpacity=100;fillColor=#d6242d;" parent="1" vertex="1">
                        <mxGeometry x="939" y="516" width="72" height="72" as="geometry"/>
                    </mxCell>
                </UserObject>
                <UserObject label="AD Connector" lucidchartObjectId="yV36pOmHtfre" id="tUG6ERA7CwkmzWQRMpPt-15">
                    <mxCell style="html=1;whiteSpace=wrap;shape=mxgraph.aws4.ad_connector;labelPosition=center;verticalLabelPosition=bottom;align=center;verticalAlign=top;strokeColor=none;fontSize=11;fontColor=#000000;spacing=0;strokeOpacity=100;fillColor=#d6242d;" parent="1" vertex="1">
                        <mxGeometry x="769" y="720" width="54" height="50" as="geometry"/>
                    </mxCell>
                </UserObject>
                <UserObject label="AD Connector" lucidchartObjectId="yV368WcRAyPx" id="tUG6ERA7CwkmzWQRMpPt-16">
                    <mxCell style="html=1;whiteSpace=wrap;shape=mxgraph.aws4.ad_connector;labelPosition=center;verticalLabelPosition=bottom;align=center;verticalAlign=top;strokeColor=none;fontSize=11;fontColor=#000000;spacing=0;strokeOpacity=100;fillColor=#d6242d;" parent="1" vertex="1">
                        <mxGeometry x="939" y="720" width="54" height="50" as="geometry"/>
                    </mxCell>
                </UserObject>
                <mxCell id="tUG6ERA7CwkmzWQRMpPt-17" value="" style="html=1;whiteSpace=wrap;fontSize=11;fontColor=#147eba;spacing=0;strokeColor=none;strokeOpacity=100;fillOpacity=13;fillColor=#147eba;strokeWidth=0;" parent="1" vertex="1">
                    <mxGeometry x="324" y="288" width="132" height="168" as="geometry"/>
                </mxCell>
                <UserObject label="Private Subnet" lucidchartObjectId="yV36YjX4UM3w" id="tUG6ERA7CwkmzWQRMpPt-18">
                    <mxCell style="html=1;whiteSpace=wrap;shape=mxgraph.aws4.group;grIcon=mxgraph.aws4.group_security_group;grStroke=0;verticalAlign=top;align=left;spacingLeft=30;fillOpacity=100;strokeColor=#0E82B8;fontColor=#0E82B8;fillColor=none;fontSize=11;spacing=0;strokeOpacity=100;strokeWidth=0;part=1;" parent="tUG6ERA7CwkmzWQRMpPt-17" vertex="1">
                        <mxGeometry width="132" height="168" as="geometry"/>
                    </mxCell>
                </UserObject>
                <UserObject label="Availability Zone" lucidchartObjectId="yV366Olvt4-X" id="tUG6ERA7CwkmzWQRMpPt-19">
                    <mxCell style="html=1;whiteSpace=wrap;verticalAlign=top;fillColor=none;fillOpacity=100;dashed=1;dashPattern=5 5;fontColor=#0E82B8;fontSize=11;spacing=0;strokeColor=#147eba;strokeOpacity=100;" parent="1" vertex="1">
                        <mxGeometry x="475" y="252" width="156" height="216" as="geometry"/>
                    </mxCell>
                </UserObject>
                <mxCell id="tUG6ERA7CwkmzWQRMpPt-20" value="" style="html=1;whiteSpace=wrap;fontSize=11;fontColor=#147eba;spacing=0;strokeColor=none;strokeOpacity=100;fillOpacity=13;fillColor=#147eba;strokeWidth=0;" parent="1" vertex="1">
                    <mxGeometry x="487" y="288" width="132" height="168" as="geometry"/>
                </mxCell>
                <UserObject label="Private Subnet" lucidchartObjectId="yV36QZECznzp" id="tUG6ERA7CwkmzWQRMpPt-21">
                    <mxCell style="html=1;whiteSpace=wrap;shape=mxgraph.aws4.group;grIcon=mxgraph.aws4.group_security_group;grStroke=0;verticalAlign=top;align=left;spacingLeft=30;fillOpacity=100;strokeColor=#0E82B8;fontColor=#0E82B8;fillColor=none;fontSize=11;spacing=0;strokeOpacity=100;strokeWidth=0;part=1;" parent="tUG6ERA7CwkmzWQRMpPt-20" vertex="1">
                        <mxGeometry width="132" height="168" as="geometry"/>
                    </mxCell>
                </UserObject>
                <mxCell id="tUG6ERA7CwkmzWQRMpPt-22" value="" style="html=1;whiteSpace=wrap;fontSize=11;fontColor=#232f3e;spacing=0;strokeColor=#232f3e;strokeOpacity=100;fillOpacity=0;fillColor=#ffffff;" parent="1" vertex="1">
                    <mxGeometry x="696" y="504" width="370" height="336" as="geometry"/>
                </mxCell>
                <UserObject label="AWS Master Account" lucidchartObjectId="yV36Fc-hTEtM" id="tUG6ERA7CwkmzWQRMpPt-23">
                    <mxCell style="html=1;whiteSpace=wrap;shape=mxgraph.aws4.group;grIcon=mxgraph.aws4.group_aws_cloud;verticalAlign=top;align=left;spacingLeft=30;fillOpacity=100;fillColor=none;fontSize=11;fontColor=#232f3e;spacing=0;strokeColor=#232f3e;strokeOpacity=100;part=1;" parent="tUG6ERA7CwkmzWQRMpPt-22" vertex="1">
                        <mxGeometry width="370" height="336" as="geometry"/>
                    </mxCell>
                </UserObject>
                <mxCell id="tUG6ERA7CwkmzWQRMpPt-24" value="" style="html=1;whiteSpace=wrap;fontSize=11;fontColor=#232f3e;spacing=0;strokeColor=#232f3e;strokeOpacity=100;fillOpacity=0;fillColor=#ffffff;" parent="1" vertex="1">
                    <mxGeometry x="290" y="504" width="370" height="336" as="geometry"/>
                </mxCell>
                <UserObject label="AWS Infrastructure Shared Services Account" lucidchartObjectId="yV36uAo72ExO" id="tUG6ERA7CwkmzWQRMpPt-25">
                    <mxCell style="html=1;whiteSpace=wrap;shape=mxgraph.aws4.group;grIcon=mxgraph.aws4.group_aws_cloud;verticalAlign=top;align=left;spacingLeft=30;fillOpacity=100;fillColor=none;fontSize=11;fontColor=#232f3e;spacing=0;strokeColor=#232f3e;strokeOpacity=100;part=1;" parent="tUG6ERA7CwkmzWQRMpPt-24" vertex="1">
                        <mxGeometry width="370" height="336" as="geometry"/>
                    </mxCell>
                </UserObject>
                <mxCell id="tUG6ERA7CwkmzWQRMpPt-26" value="" style="html=1;whiteSpace=wrap;fontSize=11;fontColor=#248814;spacing=0;strokeColor=#248814;strokeOpacity=100;fillOpacity=0;fillColor=#ffffff;" parent="1" vertex="1">
                    <mxGeometry x="300" y="552" width="348" height="276" as="geometry"/>
                </mxCell>
                <UserObject label="Virtual Private Cloud" lucidchartObjectId="yV36QSAxIH4l" id="tUG6ERA7CwkmzWQRMpPt-27">
                    <mxCell style="html=1;whiteSpace=wrap;shape=mxgraph.aws4.group;grIcon=mxgraph.aws4.group_vpc;verticalAlign=top;align=left;spacingLeft=30;fillOpacity=100;fontColor=#2C8723;fillColor=none;fontSize=11;spacing=0;strokeColor=#248814;strokeOpacity=100;part=1;" parent="tUG6ERA7CwkmzWQRMpPt-26" vertex="1">
                        <mxGeometry width="348" height="276" as="geometry"/>
                    </mxCell>
                </UserObject>
                <UserObject label="Availability Zone" lucidchartObjectId="yV36DQKX4VJS" id="tUG6ERA7CwkmzWQRMpPt-28">
                    <mxCell style="html=1;whiteSpace=wrap;verticalAlign=top;fillColor=none;fillOpacity=100;dashed=1;dashPattern=5 5;fontColor=#0E82B8;fontSize=11;spacing=0;strokeColor=#147eba;strokeOpacity=100;" parent="1" vertex="1">
                        <mxGeometry x="312" y="600" width="156" height="216" as="geometry"/>
                    </mxCell>
                </UserObject>
                <mxCell id="tUG6ERA7CwkmzWQRMpPt-29" value="" style="html=1;whiteSpace=wrap;fontSize=11;fontColor=#147eba;spacing=0;strokeColor=none;strokeOpacity=100;fillOpacity=13;fillColor=#147eba;strokeWidth=0;" parent="1" vertex="1">
                    <mxGeometry x="324" y="636" width="132" height="168" as="geometry"/>
                </mxCell>
                <UserObject label="Private Subnet" lucidchartObjectId="yV36VYO2asGe" id="tUG6ERA7CwkmzWQRMpPt-30">
                    <mxCell style="html=1;whiteSpace=wrap;shape=mxgraph.aws4.group;grIcon=mxgraph.aws4.group_security_group;grStroke=0;verticalAlign=top;align=left;spacingLeft=30;fillOpacity=100;strokeColor=#0E82B8;fontColor=#0E82B8;fillColor=none;fontSize=11;spacing=0;strokeOpacity=100;strokeWidth=0;part=1;" parent="tUG6ERA7CwkmzWQRMpPt-29" vertex="1">
                        <mxGeometry width="132" height="168" as="geometry"/>
                    </mxCell>
                </UserObject>
                <UserObject label="Availability Zone" lucidchartObjectId="yV36gyVJO9Ug" id="tUG6ERA7CwkmzWQRMpPt-31">
                    <mxCell style="html=1;whiteSpace=wrap;verticalAlign=top;fillColor=none;fillOpacity=100;dashed=1;dashPattern=5 5;fontColor=#0E82B8;fontSize=11;spacing=0;strokeColor=#147eba;strokeOpacity=100;" parent="1" vertex="1">
                        <mxGeometry x="475" y="600" width="156" height="216" as="geometry"/>
                    </mxCell>
                </UserObject>
                <mxCell id="tUG6ERA7CwkmzWQRMpPt-32" value="" style="html=1;whiteSpace=wrap;fontSize=11;fontColor=#147eba;spacing=0;strokeColor=none;strokeOpacity=100;fillOpacity=13;fillColor=#147eba;strokeWidth=0;" parent="1" vertex="1">
                    <mxGeometry x="487" y="636" width="132" height="168" as="geometry"/>
                </mxCell>
                <UserObject label="Private Subnet" lucidchartObjectId="yV36o6tIp~Oz" id="tUG6ERA7CwkmzWQRMpPt-33">
                    <mxCell style="html=1;whiteSpace=wrap;shape=mxgraph.aws4.group;grIcon=mxgraph.aws4.group_security_group;grStroke=0;verticalAlign=top;align=left;spacingLeft=30;fillOpacity=100;strokeColor=#0E82B8;fontColor=#0E82B8;fillColor=none;fontSize=11;spacing=0;strokeOpacity=100;strokeWidth=0;part=1;" parent="tUG6ERA7CwkmzWQRMpPt-32" vertex="1">
                        <mxGeometry width="132" height="168" as="geometry"/>
                    </mxCell>
                </UserObject>
                <mxCell id="tUG6ERA7CwkmzWQRMpPt-34" value="" style="html=1;whiteSpace=wrap;fontSize=11;fontColor=#147eba;spacing=0;strokeColor=none;strokeOpacity=100;fillOpacity=13;fillColor=#147eba;strokeWidth=0;" parent="1" vertex="1">
                    <mxGeometry x="721" y="636" width="150" height="168" as="geometry"/>
                </mxCell>
                <UserObject label="Shared Subnet from Shared Services VPC" lucidchartObjectId="yV36zYc8-SsR" id="tUG6ERA7CwkmzWQRMpPt-35">
                    <mxCell style="html=1;whiteSpace=wrap;shape=mxgraph.aws4.group;grIcon=mxgraph.aws4.group_security_group;grStroke=0;verticalAlign=top;align=left;spacingLeft=30;fillOpacity=100;strokeColor=#0E82B8;fontColor=#0E82B8;fillColor=none;fontSize=11;spacing=0;strokeOpacity=100;strokeWidth=0;part=1;" parent="tUG6ERA7CwkmzWQRMpPt-34" vertex="1">
                        <mxGeometry width="150" height="168" as="geometry"/>
                    </mxCell>
                </UserObject>
                <mxCell id="tUG6ERA7CwkmzWQRMpPt-36" value="" style="html=1;whiteSpace=wrap;fontSize=11;fontColor=#147eba;spacing=0;strokeColor=none;strokeOpacity=100;fillOpacity=13;fillColor=#147eba;strokeWidth=0;" parent="1" vertex="1">
                    <mxGeometry x="891" y="636" width="150" height="168" as="geometry"/>
                </mxCell>
                <UserObject label="Shared Subnet from Shared Services VPC" lucidchartObjectId="yV36Ej3NoUNp" id="tUG6ERA7CwkmzWQRMpPt-37">
                    <mxCell style="html=1;whiteSpace=wrap;shape=mxgraph.aws4.group;grIcon=mxgraph.aws4.group_security_group;grStroke=0;verticalAlign=top;align=left;spacingLeft=30;fillOpacity=100;strokeColor=#0E82B8;fontColor=#0E82B8;fillColor=none;fontSize=11;spacing=0;strokeOpacity=100;strokeWidth=0;part=1;" parent="tUG6ERA7CwkmzWQRMpPt-36" vertex="1">
                        <mxGeometry width="150" height="168" as="geometry"/>
                    </mxCell>
                </UserObject>
                <UserObject label="" lucidchartObjectId="yV36VeFLOU1M" id="tUG6ERA7CwkmzWQRMpPt-38">
                    <mxCell style="html=1;jettySize=18;fontSize=11;strokeColor=#d6242d;strokeOpacity=100;strokeWidth=3;rounded=1;arcSize=0;edgeStyle=elbowEdgeStyle;startArrow=none;;endArrow=block;endFill=1;;entryX=0;entryY=0.2857142857142857;entryPerimeter=1;" parent="1" target="tUG6ERA7CwkmzWQRMpPt-34" edge="1">
                        <mxGeometry width="100" height="100" relative="1" as="geometry">
                            <Array as="points"/>
                            <mxPoint x="456" y="684" as="sourcePoint"/>
                        </mxGeometry>
                    </mxCell>
                </UserObject>
                <UserObject label="" lucidchartObjectId="yV36ouSR5pkV" id="tUG6ERA7CwkmzWQRMpPt-39">
                    <mxCell style="html=1;jettySize=18;fontSize=11;strokeColor=#d6242d;strokeOpacity=100;strokeWidth=3;rounded=1;arcSize=0;edgeStyle=orthogonalEdgeStyle;startArrow=none;;endArrow=block;endFill=1;;exitX=1;exitY=0.42857142857142855;exitPerimeter=1;entryX=0;entryY=0.42857142857142855;entryPerimeter=1;" parent="1" source="tUG6ERA7CwkmzWQRMpPt-32" target="tUG6ERA7CwkmzWQRMpPt-36" edge="1">
                        <mxGeometry width="100" height="100" relative="1" as="geometry">
                            <Array as="points"/>
                        </mxGeometry>
                    </mxCell>
                </UserObject>
                <UserObject label="Shared  Transit Gateway" lucidchartObjectId="yV36JQ-C3Iln" id="tUG6ERA7CwkmzWQRMpPt-40">
                    <mxCell style="html=1;whiteSpace=wrap;shape=mxgraph.aws4.resourceIcon;resIcon=mxgraph.aws4.transit_gateway;labelPosition=center;verticalLabelPosition=bottom;align=center;verticalAlign=top;strokeColor=#ffffff;fontSize=11;fontColor=#000000;spacing=0;strokeOpacity=100;fillColor=#693cc5;" parent="1" vertex="1">
                        <mxGeometry x="652" y="468" width="54" height="54" as="geometry"/>
                    </mxCell>
                </UserObject>
                <UserObject label="AWS Managed Microsoft AD" lucidchartObjectId="KV36Be.7rDYy" id="tUG6ERA7CwkmzWQRMpPt-41">
                    <mxCell style="html=1;whiteSpace=wrap;shape=mxgraph.aws4.managed_ms_ad;labelPosition=center;verticalLabelPosition=bottom;align=center;verticalAlign=top;strokeColor=none;fontSize=11;fontColor=#000000;spacing=0;strokeOpacity=100;fillColor=#d6242d;" parent="1" vertex="1">
                        <mxGeometry x="372" y="696" width="48" height="47" as="geometry"/>
                    </mxCell>
                </UserObject>
                <UserObject label="AWS Managed Microsoft AD" lucidchartObjectId="KV36wjnMP4rZ" id="tUG6ERA7CwkmzWQRMpPt-42">
                    <mxCell style="html=1;whiteSpace=wrap;shape=mxgraph.aws4.managed_ms_ad;labelPosition=center;verticalLabelPosition=bottom;align=center;verticalAlign=top;strokeColor=none;fontSize=11;fontColor=#000000;spacing=0;strokeOpacity=100;fillColor=#d6242d;" parent="1" vertex="1">
                        <mxGeometry x="529" y="696" width="48" height="47" as="geometry"/>
                    </mxCell>
                </UserObject>
            </root>
        </mxGraphModel>
    </diagram>
    <diagram id="OAX0-c43AcRWh5rPUBYf" name="self-managed-ad">
        <mxGraphModel dx="1864" dy="1084" grid="1" gridSize="10" guides="1" tooltips="1" connect="1" arrows="1" fold="1" page="1" pageScale="1" pageWidth="850" pageHeight="1100" math="0" shadow="0">
            <root>
                <mxCell id="wwPzeh1myE0Zpn4RF0lU-0"/>
                <mxCell id="wwPzeh1myE0Zpn4RF0lU-1" parent="wwPzeh1myE0Zpn4RF0lU-0"/>
                <mxCell id="wwPzeh1myE0Zpn4RF0lU-2" value="" style="html=1;whiteSpace=wrap;fontSize=11;fontColor=#5a6c86;spacing=0;strokeColor=#5a6c86;strokeOpacity=100;fillOpacity=0;fillColor=#ffffff;" parent="wwPzeh1myE0Zpn4RF0lU-1" vertex="1">
                    <mxGeometry x="-72" y="156" width="228" height="360" as="geometry"/>
                </mxCell>
                <UserObject label="Corporate Data Center" lucidchartObjectId="wD36Ym39XgtD" id="wwPzeh1myE0Zpn4RF0lU-3">
                    <mxCell style="html=1;whiteSpace=wrap;shape=mxgraph.aws4.group;grIcon=mxgraph.aws4.group_corporate_data_center;verticalAlign=top;align=left;spacingLeft=30;fillOpacity=100;fontColor=#5A6C86;fillColor=none;fontSize=11;spacing=0;strokeColor=#5a6c86;strokeOpacity=100;part=1;" parent="wwPzeh1myE0Zpn4RF0lU-2" vertex="1">
                        <mxGeometry width="228" height="360" as="geometry"/>
                    </mxCell>
                </UserObject>
                <UserObject label="Customer Edge Router" lucidchartObjectId="wD36wJ8la3iW" id="wwPzeh1myE0Zpn4RF0lU-4">
                    <mxCell style="html=1;whiteSpace=wrap;shape=mxgraph.aws4.customer_gateway;labelPosition=center;verticalLabelPosition=bottom;align=center;verticalAlign=top;strokeColor=none;fontSize=11;fontColor=#000000;spacing=0;strokeOpacity=100;fillColor=#693cc5;" parent="wwPzeh1myE0Zpn4RF0lU-1" vertex="1">
                        <mxGeometry x="133" y="402" width="48" height="48" as="geometry"/>
                    </mxCell>
                </UserObject>
                <mxCell id="wwPzeh1myE0Zpn4RF0lU-5" value="" style="html=1;whiteSpace=wrap;fontSize=11;fontColor=#232f3e;spacing=0;strokeColor=#232f3e;strokeOpacity=100;fillOpacity=0;fillColor=#ffffff;" parent="wwPzeh1myE0Zpn4RF0lU-1" vertex="1">
                    <mxGeometry x="290" y="156" width="370" height="336" as="geometry"/>
                </mxCell>
                <UserObject label="AWS Network Account" lucidchartObjectId="wD36ZxVUwn57" id="wwPzeh1myE0Zpn4RF0lU-6">
                    <mxCell style="html=1;whiteSpace=wrap;shape=mxgraph.aws4.group;grIcon=mxgraph.aws4.group_aws_cloud;verticalAlign=top;align=left;spacingLeft=30;fillOpacity=100;fillColor=none;fontSize=11;fontColor=#232f3e;spacing=0;strokeColor=#232f3e;strokeOpacity=100;part=1;" parent="wwPzeh1myE0Zpn4RF0lU-5" vertex="1">
                        <mxGeometry width="370" height="336" as="geometry"/>
                    </mxCell>
                </UserObject>
                <mxCell id="wwPzeh1myE0Zpn4RF0lU-7" value="" style="html=1;whiteSpace=wrap;fontSize=11;fontColor=#248814;spacing=0;strokeColor=#248814;strokeOpacity=100;fillOpacity=0;fillColor=#ffffff;" parent="wwPzeh1myE0Zpn4RF0lU-1" vertex="1">
                    <mxGeometry x="300" y="204" width="348" height="276" as="geometry"/>
                </mxCell>
                <UserObject label="Virtual Private Cloud" lucidchartObjectId="wD36VYw41Bxi" id="wwPzeh1myE0Zpn4RF0lU-8">
                    <mxCell style="html=1;whiteSpace=wrap;shape=mxgraph.aws4.group;grIcon=mxgraph.aws4.group_vpc;verticalAlign=top;align=left;spacingLeft=30;fillOpacity=100;fontColor=#2C8723;fillColor=none;fontSize=11;spacing=0;strokeColor=#248814;strokeOpacity=100;part=1;" parent="wwPzeh1myE0Zpn4RF0lU-7" vertex="1">
                        <mxGeometry width="348" height="276" as="geometry"/>
                    </mxCell>
                </UserObject>
                <UserObject label="" lucidchartObjectId="wD36kJcJA6Z." id="wwPzeh1myE0Zpn4RF0lU-9">
                    <mxCell style="html=1;jettySize=18;fontSize=11;strokeOpacity=100;rounded=1;arcSize=0;edgeStyle=orthogonalEdgeStyle;startArrow=block;endFill=1;;endArrow=none;;exitX=1;exitY=0.5;exitPerimeter=1;entryX=0.12106186497058186;entryY=0;entryPerimeter=1;" parent="wwPzeh1myE0Zpn4RF0lU-1" source="wwPzeh1myE0Zpn4RF0lU-4" target="wwPzeh1myE0Zpn4RF0lU-43" edge="1">
                        <mxGeometry width="100" height="100" relative="1" as="geometry">
                            <Array as="points"/>
                        </mxGeometry>
                    </mxCell>
                </UserObject>
                <UserObject label="AWS Direct Connect" lucidchartObjectId="wD36FEzocoYv" id="wwPzeh1myE0Zpn4RF0lU-10">
                    <mxCell style="html=1;whiteSpace=wrap;shape=mxgraph.aws4.resourceIcon;resIcon=mxgraph.aws4.direct_connect;labelPosition=center;verticalLabelPosition=bottom;align=center;verticalAlign=top;strokeColor=#ffffff;fontSize=11;fontColor=#000000;spacing=0;strokeOpacity=100;fillColor=#693cc5;" parent="wwPzeh1myE0Zpn4RF0lU-1" vertex="1">
                        <mxGeometry x="216" y="360" width="36" height="36" as="geometry"/>
                    </mxCell>
                </UserObject>
                <UserObject label="VPN Connection" lucidchartObjectId="wD36rDgqL8s-" id="wwPzeh1myE0Zpn4RF0lU-11">
                    <mxCell style="html=1;whiteSpace=wrap;shape=mxgraph.aws4.vpn_connection;labelPosition=center;verticalLabelPosition=bottom;align=center;verticalAlign=top;strokeColor=none;fontSize=11;fontColor=#000000;spacing=0;strokeOpacity=100;fillColor=#693cc5;" parent="wwPzeh1myE0Zpn4RF0lU-1" vertex="1">
                        <mxGeometry x="218" y="432" width="32" height="36" as="geometry"/>
                    </mxCell>
                </UserObject>
                <UserObject label="Active Directory Domain Controller" lucidchartObjectId="wD36HZFNTlSK" id="wwPzeh1myE0Zpn4RF0lU-12">
                    <mxCell style="html=1;whiteSpace=wrap;shape=mxgraph.aws3.traditional_server;labelPosition=center;verticalLabelPosition=bottom;align=center;verticalAlign=top;fontSize=9;fontColor=#000000;spacing=3;strokeOpacity=100;fillColor=#7d7c7c;" parent="wwPzeh1myE0Zpn4RF0lU-1" vertex="1">
                        <mxGeometry x="-12" y="264" width="36" height="60" as="geometry"/>
                    </mxCell>
                </UserObject>
                <UserObject label="Active Directory Domain Controller" lucidchartObjectId="wD36LtflCKao" id="wwPzeh1myE0Zpn4RF0lU-13">
                    <mxCell style="html=1;whiteSpace=wrap;shape=mxgraph.aws3.traditional_server;labelPosition=center;verticalLabelPosition=bottom;align=center;verticalAlign=top;fontSize=9;fontColor=#000000;spacing=3;strokeOpacity=100;fillColor=#7d7c7c;" parent="wwPzeh1myE0Zpn4RF0lU-1" vertex="1">
                        <mxGeometry x="60" y="264" width="36" height="60" as="geometry"/>
                    </mxCell>
                </UserObject>
                <UserObject label="Availability Zone" lucidchartObjectId="wD36nfhqBQ6m" id="wwPzeh1myE0Zpn4RF0lU-14">
                    <mxCell style="html=1;whiteSpace=wrap;verticalAlign=top;fillColor=none;fillOpacity=100;dashed=1;dashPattern=5 5;fontColor=#0E82B8;fontSize=11;spacing=0;strokeColor=#147eba;strokeOpacity=100;" parent="wwPzeh1myE0Zpn4RF0lU-1" vertex="1">
                        <mxGeometry x="312" y="252" width="156" height="216" as="geometry"/>
                    </mxCell>
                </UserObject>
                <UserObject label="AWS Single Sign-On" lucidchartObjectId="wD36kNR8~0z." id="wwPzeh1myE0Zpn4RF0lU-15">
                    <mxCell style="html=1;whiteSpace=wrap;shape=mxgraph.aws4.resourceIcon;resIcon=mxgraph.aws4.single_sign_on;labelPosition=center;verticalLabelPosition=bottom;align=center;verticalAlign=top;strokeColor=#ffffff;fontSize=11;fontColor=#000000;spacing=0;strokeOpacity=100;fillColor=#d6242d;" parent="wwPzeh1myE0Zpn4RF0lU-1" vertex="1">
                        <mxGeometry x="939" y="516" width="72" height="72" as="geometry"/>
                    </mxCell>
                </UserObject>
                <UserObject label="Active Directory Domain Controller" lucidchartObjectId="wD36DaoUCd1O" id="wwPzeh1myE0Zpn4RF0lU-16">
                    <mxCell style="html=1;whiteSpace=wrap;shape=mxgraph.aws4.instance2;labelPosition=center;verticalLabelPosition=bottom;align=center;verticalAlign=top;strokeColor=none;fontSize=9;fontColor=#000000;spacing=0;strokeOpacity=100;fillColor=#d86613;" parent="wwPzeh1myE0Zpn4RF0lU-1" vertex="1">
                        <mxGeometry x="365" y="696" width="48" height="48" as="geometry"/>
                    </mxCell>
                </UserObject>
                <UserObject label="AD Connector" lucidchartObjectId="wD36j2OiF2Uv" id="wwPzeh1myE0Zpn4RF0lU-17">
                    <mxCell style="html=1;whiteSpace=wrap;shape=mxgraph.aws4.ad_connector;labelPosition=center;verticalLabelPosition=bottom;align=center;verticalAlign=top;strokeColor=none;fontSize=11;fontColor=#000000;spacing=0;strokeOpacity=100;fillColor=#d6242d;" parent="wwPzeh1myE0Zpn4RF0lU-1" vertex="1">
                        <mxGeometry x="769" y="720" width="54" height="50" as="geometry"/>
                    </mxCell>
                </UserObject>
                <UserObject label="AD Connector" lucidchartObjectId="wD36SxE5pKJ1" id="wwPzeh1myE0Zpn4RF0lU-18">
                    <mxCell style="html=1;whiteSpace=wrap;shape=mxgraph.aws4.ad_connector;labelPosition=center;verticalLabelPosition=bottom;align=center;verticalAlign=top;strokeColor=none;fontSize=11;fontColor=#000000;spacing=0;strokeOpacity=100;fillColor=#d6242d;" parent="wwPzeh1myE0Zpn4RF0lU-1" vertex="1">
                        <mxGeometry x="939" y="720" width="54" height="50" as="geometry"/>
                    </mxCell>
                </UserObject>
                <mxCell id="wwPzeh1myE0Zpn4RF0lU-19" value="" style="html=1;whiteSpace=wrap;fontSize=11;fontColor=#147eba;spacing=0;strokeColor=none;strokeOpacity=100;fillOpacity=13;fillColor=#147eba;strokeWidth=0;" parent="wwPzeh1myE0Zpn4RF0lU-1" vertex="1">
                    <mxGeometry x="324" y="288" width="132" height="168" as="geometry"/>
                </mxCell>
                <UserObject label="Private Subnet" lucidchartObjectId="TD36RyMJqsJV" id="wwPzeh1myE0Zpn4RF0lU-20">
                    <mxCell style="html=1;whiteSpace=wrap;shape=mxgraph.aws4.group;grIcon=mxgraph.aws4.group_security_group;grStroke=0;verticalAlign=top;align=left;spacingLeft=30;fillOpacity=100;strokeColor=#0E82B8;fontColor=#0E82B8;fillColor=none;fontSize=11;spacing=0;strokeOpacity=100;strokeWidth=0;part=1;" parent="wwPzeh1myE0Zpn4RF0lU-19" vertex="1">
                        <mxGeometry width="132" height="168" as="geometry"/>
                    </mxCell>
                </UserObject>
                <UserObject label="Availability Zone" lucidchartObjectId="LE36CS7RkqMw" id="wwPzeh1myE0Zpn4RF0lU-21">
                    <mxCell style="html=1;whiteSpace=wrap;verticalAlign=top;fillColor=none;fillOpacity=100;dashed=1;dashPattern=5 5;fontColor=#0E82B8;fontSize=11;spacing=0;strokeColor=#147eba;strokeOpacity=100;" parent="wwPzeh1myE0Zpn4RF0lU-1" vertex="1">
                        <mxGeometry x="475" y="252" width="156" height="216" as="geometry"/>
                    </mxCell>
                </UserObject>
                <mxCell id="wwPzeh1myE0Zpn4RF0lU-22" value="" style="html=1;whiteSpace=wrap;fontSize=11;fontColor=#147eba;spacing=0;strokeColor=none;strokeOpacity=100;fillOpacity=13;fillColor=#147eba;strokeWidth=0;" parent="wwPzeh1myE0Zpn4RF0lU-1" vertex="1">
                    <mxGeometry x="487" y="288" width="132" height="168" as="geometry"/>
                </mxCell>
                <UserObject label="Private Subnet" lucidchartObjectId="LE36ypRZaqdX" id="wwPzeh1myE0Zpn4RF0lU-23">
                    <mxCell style="html=1;whiteSpace=wrap;shape=mxgraph.aws4.group;grIcon=mxgraph.aws4.group_security_group;grStroke=0;verticalAlign=top;align=left;spacingLeft=30;fillOpacity=100;strokeColor=#0E82B8;fontColor=#0E82B8;fillColor=none;fontSize=11;spacing=0;strokeOpacity=100;strokeWidth=0;part=1;" parent="wwPzeh1myE0Zpn4RF0lU-22" vertex="1">
                        <mxGeometry width="132" height="168" as="geometry"/>
                    </mxCell>
                </UserObject>
                <mxCell id="wwPzeh1myE0Zpn4RF0lU-24" value="" style="html=1;whiteSpace=wrap;fontSize=11;fontColor=#232f3e;spacing=0;strokeColor=#232f3e;strokeOpacity=100;fillOpacity=0;fillColor=#ffffff;" parent="wwPzeh1myE0Zpn4RF0lU-1" vertex="1">
                    <mxGeometry x="696" y="504" width="370" height="336" as="geometry"/>
                </mxCell>
                <UserObject label="AWS Master Account" lucidchartObjectId="OF36W._agoQD" id="wwPzeh1myE0Zpn4RF0lU-25">
                    <mxCell style="html=1;whiteSpace=wrap;shape=mxgraph.aws4.group;grIcon=mxgraph.aws4.group_aws_cloud;verticalAlign=top;align=left;spacingLeft=30;fillOpacity=100;fillColor=none;fontSize=11;fontColor=#232f3e;spacing=0;strokeColor=#232f3e;strokeOpacity=100;part=1;" parent="wwPzeh1myE0Zpn4RF0lU-24" vertex="1">
                        <mxGeometry width="370" height="336" as="geometry"/>
                    </mxCell>
                </UserObject>
                <mxCell id="wwPzeh1myE0Zpn4RF0lU-26" value="" style="html=1;whiteSpace=wrap;fontSize=11;fontColor=#232f3e;spacing=0;strokeColor=#232f3e;strokeOpacity=100;fillOpacity=0;fillColor=#ffffff;" parent="wwPzeh1myE0Zpn4RF0lU-1" vertex="1">
                    <mxGeometry x="290" y="504" width="370" height="336" as="geometry"/>
                </mxCell>
                <UserObject label="AWS Infrastructure Shared Services Account" lucidchartObjectId="xG36xLOHteyp" id="wwPzeh1myE0Zpn4RF0lU-27">
                    <mxCell style="html=1;whiteSpace=wrap;shape=mxgraph.aws4.group;grIcon=mxgraph.aws4.group_aws_cloud;verticalAlign=top;align=left;spacingLeft=30;fillOpacity=100;fillColor=none;fontSize=11;fontColor=#232f3e;spacing=0;strokeColor=#232f3e;strokeOpacity=100;part=1;" parent="wwPzeh1myE0Zpn4RF0lU-26" vertex="1">
                        <mxGeometry width="370" height="336" as="geometry"/>
                    </mxCell>
                </UserObject>
                <mxCell id="wwPzeh1myE0Zpn4RF0lU-28" value="" style="html=1;whiteSpace=wrap;fontSize=11;fontColor=#248814;spacing=0;strokeColor=#248814;strokeOpacity=100;fillOpacity=0;fillColor=#ffffff;" parent="wwPzeh1myE0Zpn4RF0lU-1" vertex="1">
                    <mxGeometry x="300" y="552" width="348" height="276" as="geometry"/>
                </mxCell>
                <UserObject label="Virtual Private Cloud" lucidchartObjectId="xG36bU3EwZGL" id="wwPzeh1myE0Zpn4RF0lU-29">
                    <mxCell style="html=1;whiteSpace=wrap;shape=mxgraph.aws4.group;grIcon=mxgraph.aws4.group_vpc;verticalAlign=top;align=left;spacingLeft=30;fillOpacity=100;fontColor=#2C8723;fillColor=none;fontSize=11;spacing=0;strokeColor=#248814;strokeOpacity=100;part=1;" parent="wwPzeh1myE0Zpn4RF0lU-28" vertex="1">
                        <mxGeometry width="348" height="276" as="geometry"/>
                    </mxCell>
                </UserObject>
                <UserObject label="Availability Zone" lucidchartObjectId="xG36mbn3TyXV" id="wwPzeh1myE0Zpn4RF0lU-30">
                    <mxCell style="html=1;whiteSpace=wrap;verticalAlign=top;fillColor=none;fillOpacity=100;dashed=1;dashPattern=5 5;fontColor=#0E82B8;fontSize=11;spacing=0;strokeColor=#147eba;strokeOpacity=100;" parent="wwPzeh1myE0Zpn4RF0lU-1" vertex="1">
                        <mxGeometry x="312" y="600" width="156" height="216" as="geometry"/>
                    </mxCell>
                </UserObject>
                <mxCell id="wwPzeh1myE0Zpn4RF0lU-31" value="" style="html=1;whiteSpace=wrap;fontSize=11;fontColor=#147eba;spacing=0;strokeColor=none;strokeOpacity=100;fillOpacity=13;fillColor=#147eba;strokeWidth=0;" parent="wwPzeh1myE0Zpn4RF0lU-1" vertex="1">
                    <mxGeometry x="324" y="636" width="132" height="168" as="geometry"/>
                </mxCell>
                <UserObject label="Private Subnet" lucidchartObjectId="xG36GwA9uOWC" id="wwPzeh1myE0Zpn4RF0lU-32">
                    <mxCell style="html=1;whiteSpace=wrap;shape=mxgraph.aws4.group;grIcon=mxgraph.aws4.group_security_group;grStroke=0;verticalAlign=top;align=left;spacingLeft=30;fillOpacity=100;strokeColor=#0E82B8;fontColor=#0E82B8;fillColor=none;fontSize=11;spacing=0;strokeOpacity=100;strokeWidth=0;part=1;" parent="wwPzeh1myE0Zpn4RF0lU-31" vertex="1">
                        <mxGeometry width="132" height="168" as="geometry"/>
                    </mxCell>
                </UserObject>
                <UserObject label="Availability Zone" lucidchartObjectId="xG36XXbvC-xL" id="wwPzeh1myE0Zpn4RF0lU-33">
                    <mxCell style="html=1;whiteSpace=wrap;verticalAlign=top;fillColor=none;fillOpacity=100;dashed=1;dashPattern=5 5;fontColor=#0E82B8;fontSize=11;spacing=0;strokeColor=#147eba;strokeOpacity=100;" parent="wwPzeh1myE0Zpn4RF0lU-1" vertex="1">
                        <mxGeometry x="475" y="600" width="156" height="216" as="geometry"/>
                    </mxCell>
                </UserObject>
                <mxCell id="wwPzeh1myE0Zpn4RF0lU-34" value="" style="html=1;whiteSpace=wrap;fontSize=11;fontColor=#147eba;spacing=0;strokeColor=none;strokeOpacity=100;fillOpacity=13;fillColor=#147eba;strokeWidth=0;" parent="wwPzeh1myE0Zpn4RF0lU-1" vertex="1">
                    <mxGeometry x="487" y="636" width="132" height="168" as="geometry"/>
                </mxCell>
                <UserObject label="Private Subnet" lucidchartObjectId="xG3641cFgogq" id="wwPzeh1myE0Zpn4RF0lU-35">
                    <mxCell style="html=1;whiteSpace=wrap;shape=mxgraph.aws4.group;grIcon=mxgraph.aws4.group_security_group;grStroke=0;verticalAlign=top;align=left;spacingLeft=30;fillOpacity=100;strokeColor=#0E82B8;fontColor=#0E82B8;fillColor=none;fontSize=11;spacing=0;strokeOpacity=100;strokeWidth=0;part=1;" parent="wwPzeh1myE0Zpn4RF0lU-34" vertex="1">
                        <mxGeometry width="132" height="168" as="geometry"/>
                    </mxCell>
                </UserObject>
                <mxCell id="wwPzeh1myE0Zpn4RF0lU-36" value="" style="html=1;whiteSpace=wrap;fontSize=11;fontColor=#147eba;spacing=0;strokeColor=none;strokeOpacity=100;fillOpacity=13;fillColor=#147eba;strokeWidth=0;" parent="wwPzeh1myE0Zpn4RF0lU-1" vertex="1">
                    <mxGeometry x="721" y="636" width="150" height="168" as="geometry"/>
                </mxCell>
                <UserObject label="Shared Subnet from Shared Services VPC" lucidchartObjectId=".G36kKw.nmQ4" id="wwPzeh1myE0Zpn4RF0lU-37">
                    <mxCell style="html=1;whiteSpace=wrap;shape=mxgraph.aws4.group;grIcon=mxgraph.aws4.group_security_group;grStroke=0;verticalAlign=top;align=left;spacingLeft=30;fillOpacity=100;strokeColor=#0E82B8;fontColor=#0E82B8;fillColor=none;fontSize=11;spacing=0;strokeOpacity=100;strokeWidth=0;part=1;" parent="wwPzeh1myE0Zpn4RF0lU-36" vertex="1">
                        <mxGeometry width="150" height="168" as="geometry"/>
                    </mxCell>
                </UserObject>
                <UserObject label="Active Directory Domain Controller" lucidchartObjectId="UH36cJ8g1mEP" id="wwPzeh1myE0Zpn4RF0lU-38">
                    <mxCell style="html=1;whiteSpace=wrap;shape=mxgraph.aws4.instance2;labelPosition=center;verticalLabelPosition=bottom;align=center;verticalAlign=top;strokeColor=none;fontSize=9;fontColor=#000000;spacing=0;strokeOpacity=100;fillColor=#d86613;" parent="wwPzeh1myE0Zpn4RF0lU-1" vertex="1">
                        <mxGeometry x="535" y="696" width="48" height="48" as="geometry"/>
                    </mxCell>
                </UserObject>
                <mxCell id="wwPzeh1myE0Zpn4RF0lU-39" value="" style="html=1;whiteSpace=wrap;fontSize=11;fontColor=#147eba;spacing=0;strokeColor=none;strokeOpacity=100;fillOpacity=13;fillColor=#147eba;strokeWidth=0;" parent="wwPzeh1myE0Zpn4RF0lU-1" vertex="1">
                    <mxGeometry x="891" y="636" width="150" height="168" as="geometry"/>
                </mxCell>
                <UserObject label="Shared Subnet from Shared Services VPC" lucidchartObjectId="UH36OwW5UC-e" id="wwPzeh1myE0Zpn4RF0lU-40">
                    <mxCell style="html=1;whiteSpace=wrap;shape=mxgraph.aws4.group;grIcon=mxgraph.aws4.group_security_group;grStroke=0;verticalAlign=top;align=left;spacingLeft=30;fillOpacity=100;strokeColor=#0E82B8;fontColor=#0E82B8;fillColor=none;fontSize=11;spacing=0;strokeOpacity=100;strokeWidth=0;part=1;" parent="wwPzeh1myE0Zpn4RF0lU-39" vertex="1">
                        <mxGeometry width="150" height="168" as="geometry"/>
                    </mxCell>
                </UserObject>
                <UserObject label="" lucidchartObjectId="xI36AKD8-Aab" id="wwPzeh1myE0Zpn4RF0lU-41">
                    <mxCell style="html=1;jettySize=18;fontSize=11;strokeColor=#d6242d;strokeOpacity=100;strokeWidth=3;rounded=1;arcSize=0;edgeStyle=elbowEdgeStyle;startArrow=none;;endArrow=block;endFill=1;;entryX=0;entryY=0.2857142857142857;entryPerimeter=1;" parent="wwPzeh1myE0Zpn4RF0lU-1" target="wwPzeh1myE0Zpn4RF0lU-36" edge="1">
                        <mxGeometry width="100" height="100" relative="1" as="geometry">
                            <Array as="points"/>
                            <mxPoint x="456" y="684" as="sourcePoint"/>
                        </mxGeometry>
                    </mxCell>
                </UserObject>
                <UserObject label="" lucidchartObjectId="GI36-v5-E2E~" id="wwPzeh1myE0Zpn4RF0lU-42">
                    <mxCell style="html=1;jettySize=18;fontSize=11;strokeColor=#d6242d;strokeOpacity=100;strokeWidth=3;rounded=1;arcSize=0;edgeStyle=orthogonalEdgeStyle;startArrow=none;;endArrow=block;endFill=1;;exitX=1;exitY=0.42857142857142855;exitPerimeter=1;entryX=0;entryY=0.42857142857142855;entryPerimeter=1;" parent="wwPzeh1myE0Zpn4RF0lU-1" source="wwPzeh1myE0Zpn4RF0lU-34" target="wwPzeh1myE0Zpn4RF0lU-39" edge="1">
                        <mxGeometry width="100" height="100" relative="1" as="geometry">
                            <Array as="points"/>
                        </mxGeometry>
                    </mxCell>
                </UserObject>
                <UserObject label="Shared  Transit Gateway" lucidchartObjectId="wD36F8AV6986" id="wwPzeh1myE0Zpn4RF0lU-43">
                    <mxCell style="html=1;whiteSpace=wrap;shape=mxgraph.aws4.resourceIcon;resIcon=mxgraph.aws4.transit_gateway;labelPosition=center;verticalLabelPosition=bottom;align=center;verticalAlign=top;strokeColor=#ffffff;fontSize=11;fontColor=#000000;spacing=0;strokeOpacity=100;fillColor=#693cc5;" parent="wwPzeh1myE0Zpn4RF0lU-1" vertex="1">
                        <mxGeometry x="652" y="468" width="54" height="54" as="geometry"/>
                    </mxCell>
                </UserObject>
            </root>
        </mxGraphModel>
    </diagram>
</mxfile>